# xmcd
#
# Track frame offsets: 
#        150
#        16223
#        32392
#        49238
#        68208
#        83868
#        110605
#        129053
#        153837
#
# Disc length: 2324 seconds
#
# Revision: 0
# Processed by: cddbd v1.5.2PL0 Copyright (c) Steve Scherf et al.
# Submitted via: ExactAudioCopy v1.3
#
DISCID=63091209
DTITLE=Damon Fowler Group - Riverview Drive
DYEAR=1998
DGENRE=Electric Blues
TTITLE0=Pocket Full of Blues
TTITLE1=Jig Is Up
TTITLE2=Bye Bye Baby
TTITLE3=I Don't Mind
TTITLE4=Riverview Drive
TTITLE5=I've Got Eyes
TTITLE6=Aint Gonna Worry Bout You
TTITLE7=You Ain't My Momma
TTITLE8=Money Shot
EXTD=
EXTT0=
EXTT1=
EXTT2=
EXTT3=
EXTT4=
EXTT5=
EXTT6=
EXTT7=
EXTT8=
PLAYORDER=
